# xmcd
#
# Track frame offsets:
#	150
#	7565
#	21030
#	35805
#	46825
#	56195
#	70865
#	84335
#	98350
#	106470
#	119450
#	130295
#	143300
#	155795
#	167200
#	178705
#	190855
#	200170
#
# Disc length: 2787 seconds
#
# Revision: 0
# Processed by: cddbd v1.4PL0 Copyright (c) Steve Scherf et al.
# Submitted via: EasyCDDAExtractor 4.5.2.1
#
DISCID=ee0ae112
DTITLE=Dominoes (Clyde McPhatter) - The Dominoes featuring Clyde McPhatter 18 
DTITLE=Hits-Volume Two
DYEAR=1900
DGENRE=blues
TTITLE0=No Says My Heart
TTITLE1=Do Something For Me
TTITLE2=Harbor Lights
TTITLE3=That's What You're Doing To Me
TTITLE4=I Can't Escape From You
TTITLE5=Don't Leave Me This Way
TTITLE6=Deep Sea Blues
TTITLE7=When The Swallows Come Back To Capistrano
TTITLE8=Yours Forever
TTITLE9=Chicken Blues
TTITLE10=Weeping Willow Blues
TTITLE11=Heart To Heart
TTITLE12=The Deacon Moves In
TTITLE13=Love Love Love
TTITLE14=Pedal Pushin' Papa
TTITLE15=No Room
TTITLE16=I Ain't Gonna Cry For You
TTITLE17=I'm Lonely
EXTD=When Clyde McPhatter died at the age of 39, he left a legacy of twenty-tw
EXTD=o years of recording history. Clyde's earliest recordings which were made
EXTD=for the King-Federal label are contained in this collection (except thos
EXTD=e already included on The Dominoes-All Their Hits/King-5005. McPhatter is
EXTD=featured vocalist on the cuts on side one, on side two he functions as p
EXTD=art of the group.) McPhatter began singing as a choir boy at Mt. CalvaryB
EXTD=aptist Church in Durham, North Carolina. He moved to New York City at age
EXTD=twelve and, when his voice changed from soprano to tenor, he met BillyWa
EXTD=rd who asked him to join the Dominoes in 1950. Most of the Dominoes' hit 
EXTD=records were recorded while he was a member of the group, many with him a
EXTD=s featured vocalist.\n\nClyde left the Dominoes in September 1953 to form
EXTD=the Drifters for Atlantic records and began a string of hits with 'Money
EXTD=Honey'. In 1954 Clyde was drafted and began singing as a solo at shows a
EXTD=t various armed forces bases. He began to record as a solo with 'SevenDay
EXTD=s' which was followed by 'Without Love' (later an even bigger hit forTom 
EXTD=Jones) and his biggest hit 'A Lover's Question' in 1958.\n\nJoining Mercu
EXTD=ry Records, Clyde had his final top ten pop hit in 1962 with 'Lover Pleas
EXTD=e', a song written for him by country music artist, Billy Swan. Several o
EXTD=ther Mercury releases followed and Clyde worked clubs and rock and roll r
EXTD=evival shows until his death in New York City on June 13, 1972.\n
EXTT0=
EXTT1=
EXTT2=
EXTT3=
EXTT4=
EXTT5=
EXTT6=
EXTT7=
EXTT8=
EXTT9=
EXTT10=
EXTT11=
EXTT12=
EXTT13=
EXTT14=
EXTT15=
EXTT16=
EXTT17=
PLAYORDER=
